# xmcd CD database file
#
# Track frame offsets:
#	150
#	14696
#	23778
#	31905
#	40948
#	52277
#	61832
#	74787
#	86060
#	94678
#	108134
#	117547
#	127517
#	138900
#	148572
#	166111
#	176243
#	187273
#	199649
#	209275
#	219542
#	228902
#	240028
#	254854
#	268525
#	280389
#	291266
#	302541
#	313054
#
# Disc length: 4333 seconds
#
# Revision: 0
# Processed by: cddbd v1.4PL0 Copyright (c) Steve Scherf et al.
# Submitted via: CDex 1.50Beta7
#
DISCID=b210eb1d
DTITLE=Ingen Artist - A Single Collection From Country Rock Cirkle - Disc 1
DYEAR=2002
DGENRE=Country
TTITLE0=Hank Locklin - Country Hall Of Fame
TTITLE1=Loy Clingman - I'm Low Low Low
TTITLE2=Whitey Knight - The Blues Walked In
TTITLE3=Edwards - Honey Lovin'
TTITLE4=Marvin Rainwater - Gonna Find Me A Bluebird
TTITLE5=George Jones - Have Mercy On Me
TTITLE6=Walter Brennan - Mama Sang A Song
TTITLE7=James O'Gwynn - Were You Ever A Strang
TTITLE8=Charlie Walker - No Sorrow Tonight
TTITLE9=Kitty Wells - I Gave My Wedding Dress Away
TTITLE10=Faron Young - I Hear You Talkin'
TTITLE11=The Carlisles - Busy Body Boogie
TTITLE12=Little Jimmy Dickens - I Got A Hole In My Pocket
TTITLE13=Frank Ifield - She Taught Me How To Yodel
TTITLE14=Wink Martindale - Deck Of Cards
TTITLE15=Bob Luman - Tears From Out Of Nowhere
TTITLE16=Kitty Wells - My Big Truck Drivin' Man
TTITLE17=Dallas Frazier - I Hope I Like Mexico Blues
TTITLE18=Jim Ed Brown - Too Good To Be True
TTITLE19=Jimmy Newman - I'm Sorry Letter
TTITLE20=Slim Whitman - Valley Of Tears
TTITLE21=Jean Shepard - A Real Good Woman
TTITLE22=Jeef Young - Chico California
TTITLE23=Rex Allen - Don't Go Near The Indians
TTITLE24=Faron Young - Here I Am In Dallas
TTITLE25=Glenn Barber - Yes Dear There Is A Virginia
TTITLE26=Stonevall Jackson - Give It Back To The Indians
TTITLE27=Warner Mack - I'd Give The World
TTITLE28=Johnny Horton - The Train With Rhumba Beat
EXTD=YEAR: 2002
EXTT0=
EXTT1=
EXTT2=
EXTT3=
EXTT4=
EXTT5=
EXTT6=
EXTT7=
EXTT8=
EXTT9=
EXTT10=
EXTT11=
EXTT12=
EXTT13=
EXTT14=
EXTT15=
EXTT16=
EXTT17=
EXTT18=
EXTT19=
EXTT20=
EXTT21=
EXTT22=
EXTT23=
EXTT24=
EXTT25=
EXTT26=
EXTT27=
EXTT28=
PLAYORDER=
